<svg height="512pt" viewBox="-133 0 512 512" width="512pt" xmlns="http://www.w3.org/2000/svg"><path d="m234 338.269531-66.019531 66.019531c-11.992188 11.996094-27.941407 18.601563-44.902344 18.601563-16.964844 0-32.910156-6.605469-44.90625-18.601563-.035156-.035156-.066406-.070312-.101563-.105468l-65.683593-67.011719-6.167969 29.308594c-.859375 4.070312-1.292969 8.242187-1.292969 12.402343v88.808594c0 24.433594 19.875 44.308594 44.308594 44.308594h147.691406c24.429688 0 44.308594-19.875 44.308594-44.308594v-88.808594c0-4.15625-.433594-8.324218-1.292969-12.398437zm0 0"/><path d="m170.996094 64c8.945312 0 17.632812 1.128906 25.925781 3.25v-22.941406c0-24.433594-19.875-44.308594-44.304687-44.308594h-59.078126c-24.433593 0-44.308593 19.875-44.308593 44.308594v22.941406c8.292969-2.121094 16.980469-3.25 25.929687-3.25zm0 0"/><path d="m170.996094 93.539062h-95.835938c-41.445312 0-75.160156 33.714844-75.160156 75.15625v65.9375c0 12.214844 3.746094 24.148438 10.636719 34.152344l67.535156-67.535156c24.761719-24.761719 65.050781-24.761719 89.808594 0l67.539062 67.535156c6.886719-10.003906 10.632813-21.9375 10.632813-34.152344v-65.9375c0-41.441406-33.714844-75.15625-75.15625-75.15625zm0 0"/><path d="m123.078125 393.351562c9.070313 0 17.601563-3.535156 24.015625-9.949218l79.640625-79.640625-.527344-2.515625-79.109375-79.109375c-13.246094-13.246094-34.792968-13.246094-48.039062 0l-79.109375 79.109375-.25 1.1875 79.410156 81.015625c6.40625 6.386719 14.917969 9.902343 23.96875 9.902343zm-24.617187-132.429687h49.230468c8.15625 0 14.769532 6.613281 14.769532 14.769531s-6.613282 14.769532-14.769532 14.769532h-49.230468c-8.15625 0-14.769532-6.613282-14.769532-14.769532s6.613282-14.769531 14.769532-14.769531zm-14.769532 68.925781c0-8.15625 6.613282-14.769531 14.769532-14.769531h49.230468c8.15625 0 14.769532 6.613281 14.769532 14.769531s-6.613282 14.769532-14.769532 14.769532h-49.230468c-8.15625 0-14.769532-6.613282-14.769532-14.769532zm0 0"/></svg>