<?xml version="1.0" encoding="iso-8859-1"?>
<!-- Generator: Adobe Illustrator 19.0.0, SVG Export Plug-In . SVG Version: 6.00 Build 0)  -->
<svg version="1.1" id="Layer_1" xmlns="http://www.w3.org/2000/svg" xmlns:xlink="http://www.w3.org/1999/xlink" x="0px" y="0px"
	 viewBox="0 0 511.25 511.25" style="enable-background:new 0 0 511.25 511.25;" xml:space="preserve">
<g>
	<g>
		<path d="M298.318,8.431V0c-5.163,0.759-10.505,2.014-16.06,3.371c-8.875,2.167-18.048,4.412-26.633,4.412
			c-8.585,0-17.758-2.244-26.633-4.412C223.447,2.014,218.113,0.768,212.959,0v7.782c-0.077,1.383-4.966,75.299,42.667,109.236
			C303.404,82.995,298.378,9.199,298.318,8.431z"/>
	</g>
</g>
<g>
	<g>
		<path d="M468.892,160.284c-6.007-46.089-45.158-113.869-63.633-125.577c-11.699-7.415-48.623-19.814-86.784-32.12
			c-1.169-0.375-2.099-0.674-3.115-0.998v6.195c0.256,2.987,6.067,88.875-55.253,126.72c-1.374,0.853-2.927,1.28-4.48,1.28
			s-3.106-0.427-4.489-1.28C189.826,96.66,195.637,10.772,195.919,7.136V1.581c-1.024,0.324-1.963,0.631-3.14,1.007
			c-38.17,12.305-75.093,24.704-86.784,32.12C87.52,46.415,48.369,114.196,42.362,160.284c-0.29,2.21,0.299,4.437,1.638,6.212
			c1.152,1.536,28.689,37.555,75.093,37.555c3.678,0,6.929-2.355,8.098-5.837l9.984-29.978
			c9.771,24.772,24.346,68.77,24.576,111.556c-3.465,13.619-34.125,136.047-34.125,205.858c0,3.977,2.748,7.424,6.622,8.311
			c3.072,0.708,75.785,17.289,121.378,17.289c45.594,0,118.306-16.58,121.37-17.289c3.883-0.888,6.63-4.335,6.63-8.311
			c0-69.811-30.66-192.239-34.133-205.858c0.239-42.718,14.814-86.75,24.585-111.539l9.984,29.961
			c1.161,3.482,4.42,5.837,8.098,5.837c46.396,0,73.941-36.019,75.093-37.555C468.584,164.721,469.173,162.494,468.892,160.284z"/>
	</g>
</g>
<g>
</g>
<g>
</g>
<g>
</g>
<g>
</g>
<g>
</g>
<g>
</g>
<g>
</g>
<g>
</g>
<g>
</g>
<g>
</g>
<g>
</g>
<g>
</g>
<g>
</g>
<g>
</g>
<g>
</g>
</svg>
