<?xml version="1.0" encoding="iso-8859-1"?>
<!-- Generator: Adobe Illustrator 19.0.0, SVG Export Plug-In . SVG Version: 6.00 Build 0)  -->
<svg version="1.1" id="Capa_1" xmlns="http://www.w3.org/2000/svg" xmlns:xlink="http://www.w3.org/1999/xlink" x="0px" y="0px"
	 viewBox="0 0 505.59 505.59" style="enable-background:new 0 0 505.59 505.59;" xml:space="preserve">
<g>
	<g>
		<g>
			<polygon points="115.652,503.076 252.795,503.076 389.938,503.076 389.938,484.79 115.652,484.79 			"/>
			<path d="M401.813,41.281c-4.569-3.521-9.765-6.142-15.313-7.723l-53.928-15.406c-1.496-0.424-2.857-1.225-3.955-2.326
				L315.304,2.514c-19.259,10.25-40.694,15.734-62.509,15.991c-21.815-0.257-43.25-5.741-62.509-15.991l-13.313,13.312
				c-1.098,1.101-2.46,1.902-3.955,2.326l-53.928,15.406c-5.544,1.58-10.738,4.199-15.304,7.719L0,121.112l62.866,94.308
				l17.473-13.977L34.902,133.29c-2.741-4.199-1.588-9.823,2.585-12.605s9.807-1.683,12.629,2.462l44.556,66.83l6.122-4.897
				c2.744-2.198,6.505-2.628,9.674-1.105c3.169,1.523,5.184,4.728,5.183,8.243v274.286h274.286V192.219
				c-0.001-3.516,2.014-6.721,5.183-8.243c3.169-1.523,6.93-1.093,9.674,1.105l6.122,4.897l44.557-66.83
				c2.822-4.145,8.457-5.243,12.629-2.462s5.326,8.405,2.585,12.605l-45.437,68.152l17.473,13.977l62.866-94.308L401.813,41.281z
				 M352.009,208.5c2.263-0.869,4.779-0.802,6.993,0.185c2.214,0.987,3.945,2.814,4.811,5.078
				c2.289,5.965,4.086,12.108,5.375,18.366c0.489,2.375,0.013,4.847-1.321,6.872c-1.335,2.025-3.419,3.436-5.795,3.923
				c-0.608,0.126-1.227,0.189-1.848,0.188c-4.337-0.004-8.075-3.055-8.946-7.304c-1.089-5.281-2.606-10.465-4.536-15.5
				c-0.871-2.264-0.805-4.782,0.184-6.997C347.913,211.096,349.742,209.365,352.009,208.5z M318.473,167.902
				c3.344-3.779,9.117-4.136,12.902-0.799c4.774,4.223,9.207,8.816,13.259,13.737c3.18,3.902,2.608,9.641-1.28,12.839
				s-9.63,2.651-12.845-1.223c-3.433-4.173-7.192-8.068-11.241-11.647c-1.818-1.605-2.924-3.868-3.073-6.289
				C316.046,172.099,316.866,169.718,318.473,167.902L318.473,167.902z M269.938,147.451c1.206-4.901,6.149-7.903,11.054-6.714
				c6.206,1.522,12.279,3.54,18.161,6.036c4.648,1.977,6.812,7.348,4.835,11.996s-7.348,6.812-11.996,4.835
				c-4.966-2.115-10.096-3.82-15.339-5.098C271.748,157.303,268.743,152.357,269.938,147.451z M224.143,140.853
				c6.201-1.536,12.516-2.57,18.884-3.089c5.032-0.409,9.443,3.338,9.853,8.371c0.409,5.032-3.338,9.443-8.371,9.853
				c-5.381,0.438-10.717,1.313-15.955,2.616c-4.901,1.218-9.862-1.768-11.08-6.67C216.255,147.032,219.241,142.071,224.143,140.853z
				 M173.884,167.406L173.884,167.406c4.764-4.236,9.857-8.086,15.232-11.513c2.755-1.764,6.242-1.921,9.144-0.413
				c2.902,1.508,4.778,4.452,4.917,7.72s-1.477,6.361-4.24,8.112c-4.554,2.907-8.871,6.168-12.911,9.754
				c-2.439,2.177-5.856,2.885-8.959,1.857s-5.422-3.636-6.079-6.839C170.332,172.883,171.436,169.573,173.884,167.406z
				 M252.795,173.933c45.445,0,82.286,36.841,82.286,82.286s-36.841,82.286-82.286,82.286s-82.286-36.841-82.286-82.286
				C170.56,210.795,207.371,173.984,252.795,173.933z M141.598,214.206L141.598,214.206c2.265-5.977,5.012-11.76,8.214-17.291
				c2.53-4.369,8.122-5.86,12.491-3.33c4.369,2.53,5.86,8.122,3.33,12.491c-2.7,4.673-5.017,9.556-6.929,14.603
				c-1.788,4.724-7.066,7.104-11.79,5.317C142.191,224.208,139.811,218.93,141.598,214.206z M134.821,270.656
				c-0.589-4.79-0.885-9.611-0.884-14.438c0-1.554,0.027-3.098,0.089-4.643c0.101-3.279,1.952-6.252,4.849-7.79
				c2.897-1.539,6.396-1.407,9.17,0.345c2.773,1.752,4.395,4.856,4.249,8.133c-0.044,1.313-0.071,2.634-0.071,3.955
				c0.001,4.083,0.248,8.161,0.741,12.214c0.296,2.406-0.375,4.831-1.867,6.742c-1.492,1.911-3.682,3.15-6.088,3.446
				c-0.373,0.044-0.749,0.066-1.125,0.067C139.269,278.683,135.381,275.238,134.821,270.656z M171.559,320.206
				c-0.434,2.386-1.797,4.502-3.791,5.883v0c-4.152,2.873-9.847,1.838-12.723-2.313c-3.627-5.244-6.831-10.77-9.58-16.523
				c-2.168-4.555-0.236-10.006,4.317-12.179s10.005-0.247,12.183,4.304c2.329,4.871,5.043,9.548,8.116,13.987
				C171.461,315.36,171.993,317.82,171.559,320.206z M209.937,357.63L209.937,357.63c-1.129,2.146-3.065,3.755-5.38,4.474
				c-2.316,0.718-4.822,0.487-6.968-0.643c-5.645-2.974-11.044-6.396-16.143-10.232c-4.018-3.038-4.821-8.755-1.795-12.782
				c3.026-4.027,8.74-4.847,12.777-1.834c4.323,3.248,8.897,6.147,13.679,8.67c2.146,1.129,3.755,3.065,4.473,5.38
				S211.067,355.484,209.937,357.63z M259.633,372.374c-1.676,1.72-3.973,2.693-6.374,2.702h-0.464
				c-6.382,0-12.753-0.51-19.054-1.527c-4.985-0.809-8.371-5.506-7.563-10.491s5.506-8.371,10.491-7.563
				c5.332,0.863,10.724,1.296,16.125,1.295c5.096-0.019,9.267,4.048,9.375,9.143C262.223,368.334,261.308,370.655,259.633,372.374z
				 M308.429,361.237L308.429,361.237c-5.63,2.992-11.491,5.527-17.527,7.58c-3.094,1.059-6.518,0.384-8.98-1.769
				s-3.586-5.456-2.949-8.664c0.637-3.208,2.938-5.831,6.036-6.88c5.107-1.736,10.067-3.88,14.83-6.411
				c2.884-1.534,6.367-1.414,9.137,0.316s4.408,4.807,4.295,8.071S311.313,359.702,308.429,361.237z M350.813,323.389
				L350.813,323.389c-3.614,5.256-7.642,10.215-12.045,14.83c-3.486,3.654-9.275,3.79-12.929,0.304
				c-3.654-3.486-3.79-9.275-0.304-12.929c3.732-3.908,7.145-8.109,10.205-12.562c1.85-2.692,4.996-4.193,8.253-3.937
				c3.257,0.256,6.129,2.23,7.536,5.179C352.936,317.222,352.663,320.696,350.813,323.389z M370.84,270.17
				c-0.743,6.342-2.003,12.613-3.768,18.75l0.001,0c-0.901,3.139-3.408,5.559-6.577,6.348s-6.518-0.173-8.786-2.522
				c-2.268-2.35-3.11-5.731-2.208-8.87c1.484-5.186,2.547-10.483,3.179-15.839c0.375-3.249,2.457-6.051,5.461-7.347
				s6.47-0.888,9.091,1.068C369.852,263.714,371.228,266.922,370.84,270.17z"/>
			<circle cx="252.795" cy="256.219" r="64"/>
		</g>
	</g>
</g>
<g>
</g>
<g>
</g>
<g>
</g>
<g>
</g>
<g>
</g>
<g>
</g>
<g>
</g>
<g>
</g>
<g>
</g>
<g>
</g>
<g>
</g>
<g>
</g>
<g>
</g>
<g>
</g>
<g>
</g>
</svg>
