<?xml version="1.0" encoding="iso-8859-1"?>
<!-- Generator: Adobe Illustrator 19.0.0, SVG Export Plug-In . SVG Version: 6.00 Build 0)  -->
<svg version="1.1" id="Capa_1" xmlns="http://www.w3.org/2000/svg" xmlns:xlink="http://www.w3.org/1999/xlink" x="0px" y="0px"
	 viewBox="0 0 512 512" style="enable-background:new 0 0 512 512;" xml:space="preserve">
<g>
	<g>
		<path d="M38.4,409.6V512h435.2V409.6C473.6,307.2,38.4,307.2,38.4,409.6z"/>
	</g>
</g>
<g>
	<g>
		<path d="M243.2,0C158.72,0,89.6,69.12,89.6,153.6s69.12,153.6,153.6,153.6s153.6-69.12,153.6-153.6S327.68,0,243.2,0z
			 M289.28,189.44c-7.68,5.12-20.48,17.92-20.48,33.28v7.68c0,15.36-10.24,25.6-25.6,25.6c-15.36,0-25.6-10.24-25.6-25.6v-7.68
			c0-28.16,15.36-56.32,40.96-74.24c7.68-5.12,10.24-12.8,10.24-20.48c0-15.36-10.24-25.6-25.6-25.6c-15.36,0-25.6,10.24-25.6,25.6
			s-10.24,25.6-25.6,25.6s-25.6-10.24-25.6-25.6c0-43.52,33.28-76.8,76.8-76.8c43.52,0,76.8,33.28,76.8,76.8
			C320,153.6,307.2,176.64,289.28,189.44z"/>
	</g>
</g>
<g>
</g>
<g>
</g>
<g>
</g>
<g>
</g>
<g>
</g>
<g>
</g>
<g>
</g>
<g>
</g>
<g>
</g>
<g>
</g>
<g>
</g>
<g>
</g>
<g>
</g>
<g>
</g>
<g>
</g>
</svg>
