<?xml version="1.0" encoding="iso-8859-1"?>
<!-- Generator: Adobe Illustrator 19.0.0, SVG Export Plug-In . SVG Version: 6.00 Build 0)  -->
<svg version="1.1" id="Capa_1" xmlns="http://www.w3.org/2000/svg" xmlns:xlink="http://www.w3.org/1999/xlink" x="0px" y="0px"
	 viewBox="0 0 512 512" style="enable-background:new 0 0 512 512;" xml:space="preserve">
<path style="fill:#D1EEFF;" d="M390.095,460.8v-47.055c0-67.328-54.577-121.905-121.905-121.905H243.81
	c-67.328,0-121.905,54.577-121.905,121.905v44.251C170.667,489.082,267.459,528.457,390.095,460.8z"/>
<ellipse style="fill:#FFFFFF;" cx="256" cy="230.888" rx="96.305" ry="107.032"/>
<path style="fill:#1AA8FF;" d="M256,0C114.615,0,0,114.615,0,256s114.615,256,256,256s256-114.615,256-256c0-0.244,0-0.488,0-0.731
	C511.598,114.164,397.105,0,256,0z M134.095,451.779v-38.034c0.122-37.595,19.493-72.521,51.322-92.526
	c39.18,38.51,101.986,38.51,141.166,0c31.829,20.005,51.2,54.93,51.322,92.526v38.034
	C303.372,498.591,208.628,498.591,134.095,451.779z M256,325.73c-46.324,0-84.114-42.545-84.114-94.842s37.79-94.842,84.114-94.842
	s84.114,42.545,84.114,94.842S302.324,325.73,256,325.73z M402.286,434.591v-20.846c-0.098-44.739-22.504-86.491-59.733-111.299
	c14.385-21.09,22.04-46.031,21.943-71.558c0-65.707-48.762-119.223-108.495-119.223s-108.495,53.516-108.495,119.223
	c-0.098,25.527,7.558,50.469,21.943,71.558c-37.23,24.808-59.636,66.56-59.733,111.299v20.846
	C10.533,353.804-4.364,207.909,76.422,108.727S303.104-5.352,402.286,75.435s114.078,226.682,33.292,325.864
	C425.643,413.501,414.488,424.655,402.286,434.591z"/>
<g>
</g>
<g>
</g>
<g>
</g>
<g>
</g>
<g>
</g>
<g>
</g>
<g>
</g>
<g>
</g>
<g>
</g>
<g>
</g>
<g>
</g>
<g>
</g>
<g>
</g>
<g>
</g>
<g>
</g>
</svg>
