<svg xmlns="http://www.w3.org/2000/svg" width="82.285" height="75.428" viewBox="0 0 82.285 75.428"><g transform="translate(0 -2.5)"><path d="M60.884,61.319,46.7,54.769a3.59,3.59,0,0,1-2.169-3.243V46.889c.34-.384.7-.821,1.067-1.3a30.564,30.564,0,0,0,4.385-7.953,5.436,5.436,0,0,0,3.454-4.96V27.186a5.238,5.238,0,0,0-1.484-3.6V16.291a11.634,11.634,0,0,0-3.105-8.949C45.8,4.129,40.854,2.5,34.143,2.5S22.484,4.129,19.435,7.341a11.636,11.636,0,0,0-3.105,8.949v7.295a5.238,5.238,0,0,0-1.484,3.6V32.67a5.309,5.309,0,0,0,2.222,4.264,28.009,28.009,0,0,0,5.2,9.925V51.4a3.592,3.592,0,0,1-2.044,3.182L6.98,61.252A12.263,12.263,0,0,0,0,72.116v5.812H68.285V72.383A12.244,12.244,0,0,0,60.884,61.319Z"/><path d="M55.467,62.458l-9.723-5.935a2.641,2.641,0,0,1-.7-1.087l6.525-.007a7.758,7.758,0,0,0,.962.052,7.836,7.836,0,0,0,4-1A4,4,0,0,0,58.2,51.8a5.636,5.636,0,0,0-.426-3.557c-1.865-3.741-6.218-13.517-6.354-23.433,0-.171-.4-17.033-12.21-17.17a10.783,10.783,0,0,0-3.372.582A21.091,21.091,0,0,1,36.5,14.67v6.672a10.011,10.011,0,0,1,1,4.428v5.639a8.808,8.808,0,0,1-2.607,6.572A40.66,40.66,0,0,1,31.943,45.9q-.225.45-.443.851v4.032a1.733,1.733,0,0,0,.631,1.441l9.553,6.733C45.271,61.49,47.5,66.572,47.5,72.226v5.7H60V72.716C60,68.358,58.282,64.442,55.467,62.458Z" transform="translate(22.285)"/></g></svg>