<svg xmlns="http://www.w3.org/2000/svg" xmlns:xlink="http://www.w3.org/1999/xlink" width="159.269" height="164.269" viewBox="0 0 159.269 164.269"><defs><clipPath id="a"><circle cx="79.635" cy="79.635" r="79.635"/></clipPath></defs><g transform="translate(-28.001 20.999)"><g transform="translate(0.001 0.001)"><circle cx="79.635" cy="79.635" r="79.635" transform="translate(28 -16)" fill="#4ac8eb"/><g transform="translate(28 -21)" clip-path="url(#a)"><path d="M131.832,185.618v.008H39.507v-.008a45.984,45.984,0,0,1,13.62-32.742c.392-.392.784-.766,1.192-1.14a45.764,45.764,0,0,1,3.8-3.159c.87-.653,1.776-1.262,2.689-1.853s1.854-1.149,2.82-1.672a.055.055,0,0,1,.036-.018c.373-.209.739-.417,1.106-.644a26.572,26.572,0,0,0,3.124-2.167,29.261,29.261,0,0,0,9.312-12.985v-.009a29.032,29.032,0,0,0,1.707-9.853l13.647.061a29.081,29.081,0,0,0,10.94,22.793c.287.234.582.461.879.679.409.3.827.6,1.244.88.313.208.636.417.958.609.356.218.722.435,1.088.635a.3.3,0,0,1,.087.035l.079.052q1.606.888,3.124,1.88c.339.218.679.444,1.009.68.436.313.88.626,1.306.957h.018A46.048,46.048,0,0,1,131.832,185.618Z" transform="translate(-6.065 -18.324)" fill="#a57561"/><path d="M131.832,189.76H39.507a45.984,45.984,0,0,1,13.62-32.742c.392-.392.784-.766,1.192-1.14a45.7,45.7,0,0,1,3.8-3.168c.87-.645,1.776-1.262,2.689-1.845s1.854-1.149,2.82-1.672a.055.055,0,0,1,.036-.018c.373-.209.739-.417,1.106-.644a26.572,26.572,0,0,0,3.124-2.167,24.905,24.905,0,0,0,35.606.008c.287.234.582.461.879.679.409.3.827.6,1.244.88.313.208.636.417.958.609.356.226.722.435,1.088.635a.3.3,0,0,1,.087.035.39.39,0,0,1,.079.044c1.071.592,2.115,1.218,3.124,1.888.339.218.679.444,1.009.68.436.313.88.626,1.306.957h.018A46.045,46.045,0,0,1,131.832,189.76Z" transform="translate(-6.065 -22.466)" fill="#05aff2"/><path d="M52.183,46.81V75.69c0,24.529,21.533,44.413,35.432,44.413s35.433-19.884,35.433-44.413V46.81Z" transform="translate(-8.01 -7.186)" fill="#a57561"/><path d="M52.183,72.607h0a3.16,3.16,0,0,0,3.161-3.16V49.356H52.183Z" transform="translate(-8.01 -7.577)" fill="#141720"/><path d="M135.326,72.607h0V49.356h-3.16V69.447A3.159,3.159,0,0,0,135.326,72.607Z" transform="translate(-20.287 -7.577)" fill="#141720"/><path d="M123.045,42.789c0,4.134-.278,5.131-3.161,4.911-.116-2-14.51-3.637-32.261-3.637S55.465,45.7,55.349,47.7c-2.883.22-3.161-.776-3.161-4.911,0-.405.012-.833.023-1.286.44-10.2,6.195-29.274,35.412-29.274s34.96,19.072,35.4,29.274C123.033,41.956,123.045,42.384,123.045,42.789Z" transform="translate(-8.011 -1.878)" fill="#141720"/></g><g transform="translate(28 -21)" clip-path="url(#a)"><path d="M108.65,146.119a56.932,56.932,0,0,1-17.807,25.648,56.9,56.9,0,0,1-17.8-25.648l.14.052a26.463,26.463,0,0,0,35.309.009C108.545,146.162,108.6,146.137,108.65,146.119Z" transform="translate(-11.213 -22.429)" fill="#f4754e"/></g></g></g></svg>