<svg xmlns="http://www.w3.org/2000/svg" width="303.502" height="318.965" viewBox="0 0 303.502 318.965"><g transform="translate(-7.731)"><path d="M303.673,253.518c-11.151-37.754-67.121-33.566-91.279-44.408s-20.386-47.219-23.449-53.548H130.013c-3.058,6.329.714,42.711-23.449,53.548s-80.133,6.655-91.279,44.408c-6.149,20.824-5.857,27.193-7.554,50.26,0,0,76.8,15.187,150.014,15.187s153.488-15.187,153.488-15.187C309.53,280.7,309.822,274.342,303.673,253.518Z" fill="#636358"/><path d="M303.673,253.518c-11.151-37.754-67.121-33.566-91.279-44.408s-20.386-47.219-23.449-53.548H157.74s-.719,51.024,23.438,61.866,80.133,6.655,91.279,44.408c5.857,19.83,5.868,26.552,7.324,47.073,19.234-2.816,31.442-5.126,31.442-5.126C309.53,280.7,309.822,274.342,303.673,253.518Z" fill="#515147"/><path d="M174.748,318.7c10.348-26.67,24.163-73.95,26.366-119.466H117.687c2.2,45.572,16.058,92.909,26.423,119.562q6.812.168,13.636.169C163.383,318.964,169.065,318.863,174.748,318.7Z" fill="#f4754e"/><path d="M196.91,216.225l-20.8,19.9-4.918-30.379Z" fill="#f4754e"/><path d="M121.009,216.225l21.808,19.9,3.979-30.6Z" fill="#d17255"/><path d="M172.005,205.518H146.8l-1.911,6.182,29.076.169Z" fill="#c6c5af"/><path d="M146.8,205.518l-1.911,6.182,1.1.72Z" fill="#aaa88f"/><path d="M173.961,211.869l-2.771-6.126,1.141,7.059Z" fill="#aaa88f"/><path d="M173.433,318.739l.579-7.987-6.081-80.51H151.907l-7.1,80.515.585,8.066c4.12.084,8.24.141,12.354.141C162.95,318.964,168.188,318.88,173.433,318.739Z" fill="#4c4c4c"/><path d="M151.967,230.6l15.963-.36.326,4.5Z" fill="#3a3a38"/><path d="M140.541,208.182l37.714-.023-2.147,12.872-8.515,9.566H151.967l-9.274-9.566Z" fill="#4c4c4c"/><path d="M146.8,205.518l-25.72-13.984s-3.389,4.817-11.843,16.21L140.956,230.6l2.7-14.923Z" fill="#f4754e"/><path d="M171.122,205.518l25.72-13.984s3.389,4.817,11.843,16.21L176.962,230.6l-2.7-14.923Z" fill="#db6d4c"/><path d="M196.842,191.534l-25.72,13.984,1.776,5.772a25.144,25.144,0,0,0,8.279,6.138,63.675,63.675,0,0,0,9.549,3.249l17.947-12.927C200.232,196.351,196.842,191.534,196.842,191.534Z" fill="#f4754e"/><path d="M233.292,250.73l-15.333-5.559,13.776-3.794-13.13-29.969L177.856,318.616q7.167-.244,14.293-.635Z" fill="#515147"/><path d="M86.189,241.372l13.776,3.794-15.333,5.559,41.216,67.369c4.716.247,9.471.444,14.237.59L99.24,211.734Z" fill="#515147"/><path d="M228.981,251.562l-14.833-6.239,13.461-4.783-9-29.137L201.7,198.256,169.587,318.835c6.97-.146,13.962-.41,20.9-.776Z" fill="#72726a"/><path d="M201.693,198.256l-6.278,23.567c8.538,1.945,18.385,3.507,28.171,5.711L218.6,211.4Z" fill="#636358"/><path d="M99.235,211.74l-8.926,28.806,13.461,4.783-14.833,6.239L127.5,318.189c6.9.343,13.877.585,20.847.7L116.22,198.267Z" fill="#72726a"/><ellipse cx="21.386" cy="11.629" rx="21.386" ry="11.629" transform="translate(243.754 99.566) rotate(100.195)" fill="#a57561"/><ellipse cx="11.629" cy="21.386" rx="11.629" ry="21.386" transform="translate(105.496 137.556) rotate(169.805)" fill="#a57561"/><path d="M223.641,47.365H95.233S59.244,193.979,159.42,208.171C259.636,193.979,223.641,47.365,223.641,47.365Z" fill="#a57561"/><path d="M159.42,208.171c100.216-14.192,64.221-160.806,64.221-160.806H208.617c4.114,61.242,9.808,93.774-13.815,129.24C176.085,204.708,159.42,208.171,159.42,208.171Z" fill="#a57561"/><path d="M187.838,5.48s-19.824-9.33-46.477-3.642C121.408,6.1,88.938,19.667,81.631,48.731c0,0-10.932,47.483,7.683,67.931,0,0-.916-18.548.956-33.313,0,0,11.174,4.946,33.69,4.659,30.188-.382,59.444-12.776,68.442-26.355,0,0-1.034,19.532-10.876,27.5,0,0,34.522-5.4,44.729-25.883,0,0,3.417,17.935,3.417,51.159a43.989,43.989,0,0,0,6.649-19.6c2.855-27.44-2.333-65.334-22.876-64.069C213.446,30.756,204.745,13.49,187.838,5.48Z" fill="#393c3d"/><path d="M181.526,89.154c9.836-7.976,10.876-27.5,10.876-27.5-9,13.574-38.248,25.967-68.442,26.355-21.763.275-32.931-4.333-33.651-4.643,1.433.613,44.156,18.554,91.672-3.884,0,0-2.58,9.527-8.139,12.8,0,0,43.869-.793,52.418-29.008C216.054,83.758,181.526,89.154,181.526,89.154Z" fill="#a57561"/></g></svg>