<svg xmlns="http://www.w3.org/2000/svg" width="61.946" height="58.494" viewBox="0 0 61.946 58.494"><g transform="translate(-1317 -18.214)"><g transform="translate(1317 23)"><g transform="translate(0 0)"><path d="M345.895,414.455a4.561,4.561,0,1,1,4.561-4.561A4.561,4.561,0,0,1,345.895,414.455Zm0-7.3a2.736,2.736,0,1,0,2.736,2.736A2.736,2.736,0,0,0,345.895,407.158Z" transform="translate(-311.928 -374.119)"/><path d="M132.561,414.455a4.561,4.561,0,1,1,4.561-4.561A4.561,4.561,0,0,1,132.561,414.455Zm0-7.3a2.736,2.736,0,1,0,2.736,2.736A2.736,2.736,0,0,0,132.561,407.158Z" transform="translate(-116.977 -374.119)"/><path d="M111.783,119.436a11.87,11.87,0,0,1-11.858-11.858c0-.308.024-.609.046-.912H86.243a.912.912,0,0,0-.894,1.095L89,126a.912.912,0,0,0,1.014.73l27.364-3.649a.912.912,0,0,0,.764-.684l1.487-5.947A11.8,11.8,0,0,1,111.783,119.436Z" transform="translate(-77.816 -101.27)" fill="#f4754e"/><g transform="translate(0 0)"><circle cx="4.561" cy="4.561" r="4.561" transform="translate(29.406 31.215)" fill="#bdbdbf"/><path d="M4.561,0A4.561,4.561,0,1,1,0,4.561,4.561,4.561,0,0,1,4.561,0Z" transform="translate(11.027 31.215)" fill="#bdbdbf"/><path d="M16.436,72.058H37.61a.918.918,0,0,0,0-1.837H16.436a4.6,4.6,0,0,1-4.5-3.692L7.32,43.4a.918.918,0,0,0-.9-.735H.917a.918.918,0,0,0,0,1.837H5.669L10.14,66.889A6.44,6.44,0,0,0,16.436,72.058Z" transform="translate(0 -42.667)" fill="#455a64"/></g><path d="M37.61,71.854H16.436a6.431,6.431,0,0,1-6.3-5.132L5.669,44.49H.917a.912.912,0,1,1,0-1.824h5.5a.916.916,0,0,1,.9.73l4.62,22.967a4.593,4.593,0,0,0,4.5,3.667H37.61a.912.912,0,1,1,0,1.824Z" transform="translate(0 -42.666)" fill="#bdbdbf"/><path d="M128.257,244a.914.914,0,1,1-.119-1.824l26.753-3.559.763-3.047a.912.912,0,0,1,1.77.441l-.912,3.649a.912.912,0,0,1-.764.684L128.383,244A.917.917,0,0,1,128.257,244Z" transform="translate(-116.182 -218.367)" fill="#bdbdbf"/><path d="M99.015,108.491H86.245a.912.912,0,1,1,0-1.824h12.77a.912.912,0,1,1,0,1.824Z" transform="translate(-77.973 -101.237)" fill="#bdbdbf"/></g></g><g transform="translate(1341 24)" fill="#05aff2"><path d="M 9.800129890441895 16.89242362976074 C 8.213419914245605 16.89242362976074 6.345549583435059 16.33754348754883 4.540619850158691 15.32999420166016 C 2.688429594039917 14.29606342315674 1.08303964138031 12.87729358673096 0.02015968784689903 11.33503341674805 C -1.0074303150177 9.843974113464355 -2.023050308227539 7.517093658447266 -1.025910258293152 4.899453639984131 C 1.22223973274231 -1.002276301383972 4.618349552154541 -5.285796165466309 7.049289703369141 -5.285796165466309 C 7.887739658355713 -5.285796165466309 8.633389472961426 -4.762556076049805 9.265529632568359 -3.730626344680786 C 10.64598941802979 -1.477086305618286 12.62317943572998 -0.0208162497729063 14.36760997772217 1.264033794403076 C 16.55089950561523 2.872103691101074 18.275390625 4.142253875732422 18.275390625 6.367023944854736 C 18.275390625 8.575143814086914 17.86351013183594 10.29764366149902 16.97918891906738 11.78785419464111 C 16.04858016967773 13.35606384277344 14.54122924804688 14.78039360046387 12.2354793548584 16.27032279968262 C 11.59663963317871 16.68312454223633 10.77726936340332 16.89242362976074 9.800129890441895 16.89242362976074 Z" stroke="none"/><path d="M 7.049289703369141 -4.785796165466309 C 6.029019355773926 -4.785796165466309 4.660900115966797 -3.788676261901855 3.295740127563477 -2.050106048583984 C 1.868800163269043 -0.2328662872314453 0.4999494552612305 2.298413276672363 -0.5586700439453125 5.077443599700928 C -1.478529930114746 7.492213726043701 -0.527740478515625 9.658904075622559 0.4318599700927734 11.05130386352539 C 2.495929718017578 14.04632377624512 6.610959529876709 16.39242362976074 9.800129890441895 16.39242362976074 C 10.67940998077393 16.39242362976074 11.40748023986816 16.21005439758301 11.96410942077637 15.85036373138428 C 14.20254993438721 14.40394401550293 15.65950012207031 13.03197383880615 16.5492000579834 11.53269386291504 C 17.39722061157227 10.10366344451904 17.775390625 8.510513305664063 17.775390625 6.367023944854736 C 17.775390625 4.490233898162842 16.36776924133301 3.358203887939453 14.07108974456787 1.666613578796387 C 12.28974914550781 0.354583740234375 10.27071952819824 -1.132495880126953 8.83915901184082 -3.469446182250977 C 8.03279972076416 -4.785796165466309 7.292549610137939 -4.785796165466309 7.049289703369141 -4.785796165466309 M 7.049290657043457 -5.785793304443359 C 8.023284912109375 -5.785793304443359 8.928279876708984 -5.238365173339844 9.691889762878418 -3.991806030273438 C 12.71825981140137 0.9485940933227539 18.775390625 1.94874382019043 18.775390625 6.367023944854736 C 18.775390625 10.78529357910156 17.2216796875 13.64366340637207 12.50683975219727 16.69027328491211 C 11.76179885864258 17.17169952392578 10.8292932510376 17.39242744445801 9.800128936767578 17.39242744445801 C 4.316415786743164 17.39242744445801 -3.936056137084961 11.13442134857178 -1.493160247802734 4.721463680267334 C 0.6761302947998047 -0.9732532501220703 4.163119316101074 -5.785793304443359 7.049290657043457 -5.785793304443359 Z" stroke="none" fill="#fcfcfc"/></g></g></svg>