<svg xmlns="http://www.w3.org/2000/svg" width="159" height="158" viewBox="0 0 159 158"><defs><style>.a{fill:#05aff2;}.b{fill:#f4754e;}.c{fill:#a57561;}.d{fill:#886050;}</style></defs><g transform="translate(-2669 -2947)"><ellipse class="a" cx="79.5" cy="79" rx="79.5" ry="79" transform="translate(2669 2947)"/><g transform="matrix(1, -0.017, 0.017, 1, 2634.692, 2966.977)"><path class="a" d="M147.683,317.45l-2.143-.141v-4.044a6.065,6.065,0,0,0-6.065-6.065H99.04a6.065,6.065,0,0,0-6.065,6.065v4.044l-2.143.243A16.174,16.174,0,0,0,76.8,333.483v22.239h84.913V333.482A16.175,16.175,0,0,0,147.683,317.45Z" transform="translate(-6.512 -234.418)"/><path class="b" d="M210.419,379.644a18.379,18.379,0,0,1-14.152-6.652v32.934h28.3V372.992A18.38,18.38,0,0,1,210.419,379.644Z" transform="translate(-97.674 -284.622)"/><path class="c" d="M224.085,283.153a4.044,4.044,0,0,1-3.558-4.044V264.533H200.31v14.6a4.044,4.044,0,0,1-3.558,4.044h-.485v7.016a18.378,18.378,0,0,0,28.3,0v-6.975Z" transform="translate(-97.673 -201.859)"/><path class="b" d="M204.354,378.612a18.176,18.176,0,0,1-8.087-5.62v32.934h8.087Z" transform="translate(-97.674 -284.622)"/><path class="a" d="M76.8,373.138v22.239h8.087V359.168A16.17,16.17,0,0,0,76.8,373.138Z" transform="translate(-6.511 -274.073)"/><path class="c" d="M341.333,157.2h4.044a6.065,6.065,0,0,0,6.065-6.065h0a6.065,6.065,0,0,0-6.065-6.065h-2.022" transform="translate(-208.371 -110.697)"/><path class="c" d="M138.109,157.2h-4.044A6.065,6.065,0,0,1,128,151.132h0a6.065,6.065,0,0,1,6.065-6.065h2.022" transform="translate(-45.581 -110.697)"/><path d="M180.565,28.75H140.13A12.13,12.13,0,0,1,128,16.62h8.087a6.065,6.065,0,0,1-6.065-6.065V8.533h30.326A20.217,20.217,0,0,1,180.565,28.75Z" transform="translate(-45.581 -6.511)"/><path class="c" d="M162.133,93.867v20.217l.485,6.308A21.856,21.856,0,0,0,186.26,140.3q.983-.085,1.953-.257a22.24,22.24,0,0,0,17.973-20.48l.425-5.479V93.867Z" transform="translate(-71.627 -71.628)"/><path class="c" d="M170.221,110.3V85.333h-8.087v22.239l.485,6.308a21.692,21.692,0,0,0,14.658,18.762l-3.76-8.35A31.337,31.337,0,0,1,170.221,110.3Z" transform="translate(-71.628 -65.116)"/><path d="M170.221,85.333a16.049,16.049,0,0,1-8.087,14.152V85.333Z" transform="translate(-71.628 -65.116)"/><path d="M323.821,106s-8.087-4.044-8.087-12.13h8.087Z" transform="translate(-188.837 -71.628)"/><path class="d" d="M233.551,287.665V281.6H213.334v6.065C220.915,291.709,225.97,291.709,233.551,287.665Z" transform="translate(-110.697 -214.883)"/><path d="M128,42.667A13.1,13.1,0,0,0,140.13,54.8h38.413A280.812,280.812,0,0,1,128,42.667Z" transform="translate(-45.581 -32.558)"/><path class="a" d="M157.658,316.035a4.338,4.338,0,0,1,1.456-1.516,4.287,4.287,0,0,0,2.022-3.639V307.2h-8.41a7.784,7.784,0,0,0-6.47,12.13l2.467,3.68A14.7,14.7,0,0,1,157.658,316.035Z" transform="translate(-58.499 -234.418)"/><path d="M174.054,24.261H133.619a14.168,14.168,0,0,1-14.152-14.152,2.022,2.022,0,0,1,2.022-2.022h1.086a8.027,8.027,0,0,1-1.086-4.044V2.022A2.022,2.022,0,0,1,123.51,0h30.326a22.265,22.265,0,0,1,22.239,22.239A2.021,2.021,0,0,1,174.054,24.261ZM123.715,12.13a10.126,10.126,0,0,0,9.9,8.087h38.3A18.219,18.219,0,0,0,153.836,4.044h-28.3a4.048,4.048,0,0,0,4.044,4.044,2.022,2.022,0,0,1,0,4.043Z" transform="translate(-39.07)"/><path d="M160.107,107.807,158.3,104.19,159.2,106l-.91-1.805c.069-.036,6.975-3.621,6.975-10.325h4.043C169.312,103.1,160.483,107.617,160.107,107.807Z" transform="translate(-68.698 -71.628)"/><path d="M316.4,107.807c-.376-.19-9.2-4.711-9.2-13.94h4.044c0,6.7,6.9,10.289,6.975,10.325Z" transform="translate(-182.325 -71.628)"/><circle cx="4.044" cy="4.044" r="4.044" transform="translate(96.571 34.369)"/><circle cx="4.044" cy="4.044" r="4.044" transform="translate(120.832 34.369)"/><path d="M238.485,163.314H232.42a2.022,2.022,0,0,1-1.878-2.772l4.044-10.109,3.754,1.5-2.934,7.335h3.079v4.044Z" transform="translate(-123.718 -114.793)"/><path d="M239.277,214.788h-.344v-4.044h.344a11.727,11.727,0,0,0,8.336-3.453l2.859,2.861A15.741,15.741,0,0,1,239.277,214.788Z" transform="translate(-130.231 -158.179)"/><path d="M351.889,152.706h-2.022v-4.044h2.022a4.044,4.044,0,0,0,0-8.087h-2.022v-4.044h2.022a8.087,8.087,0,0,1,0,16.174Z" transform="translate(-214.883 -104.185)"/><path d="M129.576,152.708h-2.022a8.087,8.087,0,1,1,0-16.174h2.022v4.043h-2.022a4.044,4.044,0,1,0,0,8.087h2.022v4.043Z" transform="translate(-39.07 -104.186)"/><path d="M177.883,142.4a23.914,23.914,0,0,1-23.511-19.7q-.188-1.062-.281-2.137l-.487-6.322,0-20.373h4.044v20.217l.479,6.152c.049.578.127,1.169.231,1.755a19.854,19.854,0,0,0,23,16.061,20.2,20.2,0,0,0,16.307-18.614l.427-5.511,0-20.06h4.043v20.217l-.431,5.634A23.84,23.84,0,0,1,177.883,142.4Z" transform="translate(-65.116 -71.628)"/><path d="M191.777,336.187h-4.044V296.2a2.021,2.021,0,0,1,2.022-2.022h.344a2.022,2.022,0,0,0,1.678-2.008V281.6h4.044v10.553a6.058,6.058,0,0,1-4.044,5.75Z" transform="translate(-91.162 -214.883)"/><path d="M72.31,381.781H68.267V359.542a18.256,18.256,0,0,1,15.786-18.036l2.277-.156.269,4.035-2.143.141a14.172,14.172,0,0,0-12.145,14.015v22.239Z" transform="translate(0 -260.477)"/><path d="M205.4,377.5a20.338,20.338,0,0,1-15.709-7.383l3.113-2.578a16.36,16.36,0,0,0,25.191,0l3.111,2.582A20.337,20.337,0,0,1,205.4,377.5Z" transform="translate(-92.66 -280.461)"/><path d="M149,330.119,138.16,313.945a9.842,9.842,0,0,1,8.148-15.278h8.412v4.044h-8.41a5.8,5.8,0,0,0-4.786,8.989l10.833,16.168Z" transform="translate(-52.084 -227.906)"/><path d="M164.156,442.841a2.021,2.021,0,0,1-2.022-2.022v-12.13a2.022,2.022,0,0,1,4.043,0v12.13A2.021,2.021,0,0,1,164.156,442.841Z" transform="translate(-71.628 -325.58)"/><path d="M298.22,336.187h-4.044V297.9a6.06,6.06,0,0,1-4.044-5.766V281.6h4.044v10.553a2.024,2.024,0,0,0,1.678,2.022h.344a2.02,2.02,0,0,1,2.022,2.022Z" transform="translate(-169.301 -214.883)"/><path d="M384.7,381.787h-4.044V359.548a14.194,14.194,0,0,0-12.278-14.027l-2.008-.127.269-4.035,2.143.141A18.278,18.278,0,0,1,384.7,359.547v22.239Z" transform="translate(-227.475 -260.483)"/><path d="M304.391,330.118l-3.36-2.25,10.837-16.174a5.8,5.8,0,0,0-4.79-8.985h-8.41v-4.044h8.41a9.844,9.844,0,0,1,8.154,15.272Z" transform="translate(-175.813 -227.906)"/><path d="M334.822,442.841a2.02,2.02,0,0,1-2.022-2.022v-12.13a2.022,2.022,0,0,1,4.043,0v12.13A2.02,2.02,0,0,1,334.822,442.841Z" transform="translate(-201.859 -325.58)"/></g></g></svg>