<?xml version="1.0" encoding="iso-8859-1"?>
<!-- Generator: Adobe Illustrator 19.0.0, SVG Export Plug-In . SVG Version: 6.00 Build 0)  -->
<svg version="1.1" id="Layer_1" xmlns="http://www.w3.org/2000/svg" xmlns:xlink="http://www.w3.org/1999/xlink" x="0px" y="0px"
	 viewBox="0 0 512.001 512.001" style="enable-background:new 0 0 512.001 512.001;" xml:space="preserve">
<g>
	<g>
		<path d="M234.428,273.775c-2-4.483-7.254-6.496-11.737-4.496c-4.483,1.999-6.495,7.254-4.496,11.737
			c11.455,25.68,17.762,60.015,17.762,96.684c0,31.687-4.895,62.518-13.784,86.811c-1.687,4.608,0.682,9.712,5.292,11.398
			c1.008,0.368,2.039,0.544,3.054,0.544c3.625,0,7.029-2.234,8.347-5.836c9.726-26.58,14.866-58.711,14.866-92.918
			C253.731,338.591,246.875,301.683,234.428,273.775z"/>
	</g>
</g>
<g>
	<g>
		<path d="M140.115,269.278c-4.483-2-9.737,0.013-11.737,4.496c-4.428,9.927-8.195,21.13-11.195,33.295
			c-1.175,4.766,1.735,9.581,6.501,10.757c0.716,0.177,1.431,0.261,2.135,0.261c3.993,0,7.623-2.71,8.622-6.761
			c2.749-11.145,6.171-21.343,10.17-30.31C146.609,276.532,144.597,271.277,140.115,269.278z"/>
	</g>
</g>
<g>
	<g>
		<path d="M140.622,464.509c-8.889-24.291-13.784-55.122-13.784-86.811c0-11.834,0.669-23.581,1.992-34.916
			c0.568-4.875-2.923-9.287-7.798-9.856c-4.872-0.568-9.287,2.924-9.856,7.799c-1.401,12.015-2.112,24.456-2.112,36.974
			c0,34.209,5.14,66.341,14.866,92.918c1.318,3.602,4.722,5.836,8.347,5.836c1.014,0,2.046-0.174,3.054-0.544
			C139.939,474.223,142.309,469.119,140.622,464.509z"/>
	</g>
</g>
<g>
	<g>
		<path d="M511.441,140.539V8.887c0-4.908-3.978-8.887-8.887-8.887h-30.309c-4.909,0-8.887,3.979-8.887,8.887
			s3.978,8.887,8.887,8.887h21.422v113.879h-31.281H334.42h-31.282V17.774h140.669c4.909,0,8.887-3.979,8.887-8.887
			S448.716,0,443.807,0H294.251c-4.909,0-8.887,3.979-8.887,8.887v131.653c0,4.908,3.978,8.887,8.887,8.887h31.282v15.995h-31.282
			c-4.909,0-8.887,3.979-8.887,8.887v94.019c-15.854-15.154-34.607-26.506-55.083-33.473v-69.436c0-4.908-3.979-8.887-8.887-8.887
			h-5.333V98.434c0-4.908-3.979-8.887-8.887-8.887h-51.542c-4.908,0-8.887,3.979-8.887,8.887v21.874h-20.858
			c-4.952-25.676-30.966-45.321-62.232-45.321c-34.791,0-63.095,24.317-63.095,54.208s28.306,54.208,63.095,54.208
			c31.267,0,57.281-19.645,62.232-45.321h20.858v18.451h-5.333c-4.908,0-8.887,3.979-8.887,8.887v69.522
			C73.242,255.295,30.515,311.599,30.515,377.7c0,27.88,7.669,55.119,22.178,78.773c1.678,2.735,4.595,4.242,7.583,4.242
			c1.584,0,3.189-0.423,4.638-1.313c4.184-2.567,5.496-8.039,2.929-12.221c-12.792-20.856-19.555-44.882-19.555-69.479
			c0-73.4,59.716-133.115,133.115-133.115c40.829,0,78.545,18.196,103.961,50.017v166.2c-10.836,13.535-24.433,25.024-39.579,33.423
			H117.019c-11.704-6.48-22.342-14.667-31.647-24.357c-3.4-3.541-9.023-3.654-12.565-0.255c-3.541,3.4-3.654,9.026-0.255,12.565
			c11.115,11.576,23.911,21.258,38.034,28.778c1.286,0.685,2.721,1.043,4.177,1.043h133.281c1.457,0,2.892-0.358,4.178-1.044
			c12.019-6.403,23.219-14.521,33.142-23.951v16.104c0,4.908,3.978,8.887,8.887,8.887h208.303c4.909,0,8.887-3.979,8.887-8.887
			V174.308c0-4.908-3.978-8.887-8.887-8.887h-31.281v-15.995h31.281v0.001C507.464,149.426,511.441,145.447,511.441,140.539z
			 M63.655,165.629c-24.99,0-45.321-16.344-45.321-36.434s20.332-36.434,45.321-36.434s45.321,16.344,45.321,36.434
			S88.645,165.629,63.655,165.629z M164.519,107.321h33.768v49.211h-33.768V107.321z M212.508,229.998
			c-10.1-2.099-20.509-3.186-31.104-3.186c-10.661,0-21.063,1.119-31.104,3.231v-55.737h5.333h51.542h5.333V229.998z
			 M343.307,149.425h110.191v15.995H343.307V149.425z M493.666,183.195v311.028H303.138V183.195h31.282h127.965H493.666z"/>
	</g>
</g>
<g>
	<g>
		<path d="M457.942,290.423c4.909,0,8.887-3.979,8.887-8.887v-33.471c0-4.908-3.978-8.887-8.887-8.887H338.862
			c-4.909,0-8.887,3.979-8.887,8.887V429.35c0,4.908,3.978,8.887,8.887,8.887h119.079c4.909,0,8.887-3.979,8.887-8.887V311.158
			c0-4.908-3.978-8.887-8.887-8.887s-8.887,3.979-8.887,8.887v109.305H347.749v-163.51h101.305v24.584
			C449.055,286.444,453.033,290.423,457.942,290.423z"/>
	</g>
</g>
<g>
</g>
<g>
</g>
<g>
</g>
<g>
</g>
<g>
</g>
<g>
</g>
<g>
</g>
<g>
</g>
<g>
</g>
<g>
</g>
<g>
</g>
<g>
</g>
<g>
</g>
<g>
</g>
<g>
</g>
</svg>
