<svg xmlns="http://www.w3.org/2000/svg" xmlns:xlink="http://www.w3.org/1999/xlink" width="250" height="153" viewBox="0 0 250 153"><defs><filter id="a" x="0" y="0" width="250" height="153" filterUnits="userSpaceOnUse"><feOffset dy="3" input="SourceAlpha"/><feGaussianBlur stdDeviation="3" result="b"/><feFlood flood-color="#05aff2"/><feComposite operator="in" in2="b"/><feComposite in="SourceGraphic"/></filter></defs><g transform="matrix(1, 0, 0, 1, 0, 0)" filter="url(#a)"><g transform="translate(9 6)" fill="#f0f1f2" stroke="#000" stroke-width="1"><path d="M32,0H232a0,0,0,0,1,0,0V135a0,0,0,0,1,0,0H0a0,0,0,0,1,0,0V32A32,32,0,0,1,32,0Z" stroke="none"/><path d="M32,.5H231a.5.5,0,0,1,.5.5V134a.5.5,0,0,1-.5.5H1a.5.5,0,0,1-.5-.5V32A31.5,31.5,0,0,1,32,.5Z" fill="none"/></g></g></svg>