<svg xmlns="http://www.w3.org/2000/svg" width="32.036" height="30.907" viewBox="0 0 32.036 30.907"><g transform="translate(0 0)"><path d="M344.828,412.323a3.494,3.494,0,1,1,3.494-3.494A3.494,3.494,0,0,1,344.828,412.323Zm0-5.591a2.1,2.1,0,1,0,2.1,2.1A2.1,2.1,0,0,0,344.828,406.732Z" transform="translate(-318.803 -381.416)"/><path d="M131.494,412.323a3.494,3.494,0,1,1,3.494-3.494A3.494,3.494,0,0,1,131.494,412.323Zm0-5.591a2.1,2.1,0,1,0,2.1,2.1A2.1,2.1,0,0,0,131.494,406.732Z" transform="translate(-119.554 -381.416)"/><path d="M105.6,116.45a9.1,9.1,0,0,1-9.086-9.086c0-.236.018-.467.035-.7H86.03a.7.7,0,0,0-.685.839l2.8,13.978a.7.7,0,0,0,.777.559l20.967-2.8a.7.7,0,0,0,.586-.524l1.139-4.557A9.038,9.038,0,0,1,105.6,116.45Z" transform="translate(-79.573 -102.531)" fill="#f4754e"/><g transform="translate(0 0)"><circle cx="3.494" cy="3.494" r="3.494" transform="translate(22.531 23.918)" fill="#bdbdbf"/><path d="M3.494,0A3.494,3.494,0,1,1,0,3.494,3.494,3.494,0,0,1,3.494,0Z" transform="translate(8.449 23.918)" fill="#bdbdbf"/><path d="M12.594,65.187H28.817a.7.7,0,0,0,0-1.408H12.594A3.525,3.525,0,0,1,9.147,60.95L5.609,43.23a.7.7,0,0,0-.689-.563H.7a.7.7,0,0,0,0,1.407H4.344L7.769,61.226A4.934,4.934,0,0,0,12.594,65.187Z" transform="translate(0 -42.667)" fill="#455a64"/></g><path d="M28.817,65.031H12.594A4.927,4.927,0,0,1,7.769,61.1L4.344,44.064H.7a.7.7,0,1,1,0-1.4H4.92a.7.7,0,0,1,.689.559l3.54,17.6a3.519,3.519,0,0,0,3.445,2.81H28.817a.7.7,0,1,1,0,1.4Z" transform="translate(0 -42.666)" fill="#bdbdbf"/><path d="M128.03,241.877a.7.7,0,1,1-.091-1.4l20.5-2.727.584-2.334a.7.7,0,0,1,1.356.338l-.7,2.8a.7.7,0,0,1-.586.524l-20.967,2.8A.7.7,0,0,1,128.03,241.877Z" transform="translate(-118.777 -222.233)" fill="#bdbdbf"/><path d="M95.816,108.065H86.032a.7.7,0,1,1,0-1.4h9.784a.7.7,0,1,1,0,1.4Z" transform="translate(-79.694 -102.507)" fill="#bdbdbf"/></g></svg>