<svg xmlns="http://www.w3.org/2000/svg" width="27.149" height="26.192" viewBox="0 0 27.149 26.192"><g transform="translate(0 0)"><path d="M344.3,411.257a2.961,2.961,0,1,1,2.961-2.961A2.961,2.961,0,0,1,344.3,411.257Zm0-4.738a1.777,1.777,0,1,0,1.777,1.777A1.777,1.777,0,0,0,344.3,406.519Z" transform="translate(-322.24 -385.065)"/><path d="M130.961,411.257a2.961,2.961,0,1,1,2.961-2.961A2.961,2.961,0,0,1,130.961,411.257Zm0-4.738a1.777,1.777,0,1,0,1.777,1.777A1.777,1.777,0,0,0,130.961,406.519Z" transform="translate(-120.842 -385.065)"/><path d="M102.507,114.958a7.708,7.708,0,0,1-7.7-7.7c0-.2.015-.4.03-.592H85.923a.592.592,0,0,0-.58.711l2.369,11.845a.592.592,0,0,0,.659.474l17.768-2.369a.592.592,0,0,0,.5-.444l.965-3.862A7.659,7.659,0,0,1,102.507,114.958Z" transform="translate(-80.452 -103.162)" fill="#f4754e"/><g transform="translate(0 0)"><circle cx="2.961" cy="2.961" r="2.961" transform="translate(19.094 20.269)" fill="#bdbdbf"/><path d="M2.961,0A2.961,2.961,0,1,1,0,2.961,2.961,2.961,0,0,1,2.961,0Z" transform="translate(7.16 20.269)" fill="#bdbdbf"/><path d="M10.673,61.752H24.421a.6.6,0,0,0,0-1.193H10.673a2.987,2.987,0,0,1-2.921-2.4l-3-15.017a.6.6,0,0,0-.584-.477H.6a.6.6,0,0,0,0,1.193H3.681L6.584,58.4A4.182,4.182,0,0,0,10.673,61.752Z" transform="translate(0 -42.667)" fill="#455a64"/></g><path d="M24.421,61.619H10.673a4.176,4.176,0,0,1-4.088-3.332l-2.9-14.436H.6a.592.592,0,1,1,0-1.185H4.169a.6.6,0,0,1,.584.474l3,14.913a2.982,2.982,0,0,0,2.92,2.381H24.421a.592.592,0,1,1,0,1.185Z" transform="translate(0 -42.666)" fill="#bdbdbf"/><path d="M127.916,240.813a.594.594,0,1,1-.077-1.185l17.371-2.311.5-1.978a.592.592,0,0,1,1.149.287L146.262,238a.592.592,0,0,1-.5.444L128,240.808A.6.6,0,0,1,127.916,240.813Z" transform="translate(-120.075 -224.166)" fill="#bdbdbf"/><path d="M94.217,107.852H85.925a.592.592,0,1,1,0-1.185h8.292a.592.592,0,1,1,0,1.185Z" transform="translate(-80.554 -103.141)" fill="#bdbdbf"/></g></svg>