<svg xmlns="http://www.w3.org/2000/svg" width="488.946" height="471.708" viewBox="0 0 488.946 471.708"><path d="M394.667,512A53.333,53.333,0,1,1,448,458.667,53.333,53.333,0,0,1,394.667,512Zm0-85.333a32,32,0,1,0,32,32A32,32,0,0,0,394.667,426.667Z" transform="translate(2.546 -40.291)"/><path d="M181.333,512a53.333,53.333,0,1,1,53.333-53.333A53.333,53.333,0,0,1,181.333,512Zm0-85.333a32,32,0,1,0,32,32A32,32,0,0,0,181.333,426.667Z" transform="translate(0.908 -40.291)"/><g transform="translate(0 0)"><path d="M394.667,256A138.815,138.815,0,0,1,256,117.333c0-3.605.277-7.125.533-10.667H96a10.664,10.664,0,0,0-10.453,12.8L128.213,332.8a10.666,10.666,0,0,0,11.861,8.533l320-42.667a10.667,10.667,0,0,0,8.939-8L486.4,221.12A137.94,137.94,0,0,1,394.667,256Z" transform="translate(2.546 -43.561)" fill="#f4754e"/><g transform="translate(0 0.001)"><circle cx="53.333" cy="53.333" r="53.333" transform="translate(343.88 365.042)" fill="#bdbdbf"/><path d="M53.333,0A53.333,53.333,0,1,1,0,53.333,53.333,53.333,0,0,1,53.333,0Z" transform="translate(128.955 365.042)" fill="#bdbdbf"/><path d="M192.211,386.375H439.819a10.741,10.741,0,0,0,0-21.482H192.211a53.8,53.8,0,0,1-52.606-43.178L85.6,51.259a10.731,10.731,0,0,0-10.512-8.592H10.728a10.741,10.741,0,0,0,0,21.481H66.295l52.284,261.776A75.309,75.309,0,0,0,192.211,386.375Z" transform="translate(0 -42.667)" fill="#455a64"/></g><path d="M439.819,384H192.211a75.2,75.2,0,0,1-73.632-60.011L66.295,64H10.728a10.667,10.667,0,1,1,0-21.334H75.091A10.712,10.712,0,0,1,85.6,51.2l54.022,268.587a53.711,53.711,0,0,0,52.585,42.88H439.819a10.667,10.667,0,1,1,0,21.334Z" transform="translate(0 -42.666)" fill="#bdbdbf"/><path d="M138.667,341.333A10.689,10.689,0,1,1,137.28,320l312.853-41.621,8.917-35.627a10.666,10.666,0,0,1,20.693,5.162l-10.667,42.667a10.667,10.667,0,0,1-8.939,8l-320,42.667A10.773,10.773,0,0,1,138.667,341.333Z" transform="translate(2.546 -41.525)" fill="#bdbdbf"/></g><path d="M245.333,128H96a10.667,10.667,0,1,1,0-21.333H245.333a10.667,10.667,0,1,1,0,21.333Z" transform="translate(0.736 -43.172)" fill="#bdbdbf"/></svg>