<svg xmlns="http://www.w3.org/2000/svg" width="41.811" height="40.337" viewBox="0 0 41.811 40.337"><g transform="translate(0 0)"><path d="M345.895,414.455a4.561,4.561,0,1,1,4.561-4.561A4.561,4.561,0,0,1,345.895,414.455Zm0-7.3a2.736,2.736,0,1,0,2.736,2.736A2.736,2.736,0,0,0,345.895,407.158Z" transform="translate(-311.928 -374.119)"/><path d="M132.561,414.455a4.561,4.561,0,1,1,4.561-4.561A4.561,4.561,0,0,1,132.561,414.455Zm0-7.3a2.736,2.736,0,1,0,2.736,2.736A2.736,2.736,0,0,0,132.561,407.158Z" transform="translate(-116.977 -374.119)"/><path d="M111.783,119.436a11.87,11.87,0,0,1-11.858-11.858c0-.308.024-.609.046-.912H86.243a.912.912,0,0,0-.894,1.095L89,126a.912.912,0,0,0,1.014.73l27.364-3.649a.912.912,0,0,0,.764-.684l1.487-5.947A11.8,11.8,0,0,1,111.783,119.436Z" transform="translate(-77.816 -101.27)" fill="#f4754e"/><g transform="translate(0 0)"><circle cx="4.561" cy="4.561" r="4.561" transform="translate(29.406 31.215)" fill="#bdbdbf"/><path d="M4.561,0A4.561,4.561,0,1,1,0,4.561,4.561,4.561,0,0,1,4.561,0Z" transform="translate(11.027 31.215)" fill="#bdbdbf"/><path d="M16.436,72.058H37.61a.918.918,0,0,0,0-1.837H16.436a4.6,4.6,0,0,1-4.5-3.692L7.32,43.4a.918.918,0,0,0-.9-.735H.917a.918.918,0,0,0,0,1.837H5.669L10.14,66.889A6.44,6.44,0,0,0,16.436,72.058Z" transform="translate(0 -42.667)" fill="#455a64"/></g><path d="M37.61,71.854H16.436a6.431,6.431,0,0,1-6.3-5.132L5.669,44.49H.917a.912.912,0,1,1,0-1.824h5.5a.916.916,0,0,1,.9.73l4.62,22.967a4.593,4.593,0,0,0,4.5,3.667H37.61a.912.912,0,1,1,0,1.824Z" transform="translate(0 -42.666)" fill="#bdbdbf"/><path d="M128.257,244a.914.914,0,1,1-.119-1.824l26.753-3.559.763-3.047a.912.912,0,0,1,1.77.441l-.912,3.649a.912.912,0,0,1-.764.684L128.383,244A.917.917,0,0,1,128.257,244Z" transform="translate(-116.182 -218.367)" fill="#bdbdbf"/><path d="M99.015,108.491H86.245a.912.912,0,1,1,0-1.824h12.77a.912.912,0,1,1,0,1.824Z" transform="translate(-77.973 -101.237)" fill="#bdbdbf"/></g></svg>