<svg xmlns="http://www.w3.org/2000/svg" width="286.499" height="318.538" viewBox="0 0 286.499 318.538"><g transform="translate(-16.02)"><path d="M69.573,236.836s-1.012-23.123-1.557-57.932c-.506-32.442.073-60.422.624-100.721C69.163,39.867,91.33,0,157.946,0c58.319,0,72.135,26.653,69.364,44.841,0,0,8.813.781,13.467,6.835,7.891,10.269,7.807,47.348,7.172,85.113-1.248,74.074-1.6,100.047-1.6,100.047Z" fill="#2f3233"/><path d="M295.387,253.091c-10.522-37.754-63.361-33.566-86.164-44.408s-19.245-47.219-22.134-53.548H131.451c-2.889,6.329.674,42.711-22.134,53.548s-75.642,6.655-86.164,44.408c-5.806,20.824-5.525,27.187-7.133,50.26,0,0,72.5,15.187,141.611,15.187s144.888-15.187,144.888-15.187C300.917,280.278,301.193,273.915,295.387,253.091Z" fill="#515151"/><path d="M179.759,216.995c22.8,10.842,75.642,6.655,86.164,44.408,5.531,19.83,5.542,26.552,6.913,47.073,18.155-2.816,29.682-5.126,29.682-5.126-1.6-23.067-1.326-29.435-7.133-50.26-10.522-37.754-63.361-33.566-86.164-44.408s-19.245-47.219-22.134-53.548H157.631S156.951,206.159,179.759,216.995Z" fill="#393c3d"/><path d="M58.011,276.079l49.237-6.25L159.272,314,109.918,257.1Z" fill="#393c3d"/><path d="M260.511,276.079l-49.231-6.25L159.255,314,208.6,257.1Z" fill="#393c3d"/><path d="M260.511,276.079c-10.4-21.853-23.77-44.2-50.1-66.852-.41-.18-.815-.36-1.208-.545-6.4-3.041-10.713-8.088-13.686-13.917H123.008c-2.973,5.829-7.29,10.876-13.686,13.917-.393.185-.8.371-1.208.545-26.327,22.657-39.693,45-50.1,66.852l50.591-12.472L159.272,314l50.653-50.389Z" fill="#f4754e"/><path d="M210.414,209.227c-.41-.18-.815-.36-1.208-.545-6.4-3.041-10.713-8.088-13.686-13.917H163.409c3.266,9.724,8.369,18.441,16.35,22.235,12.326,5.857,33.42,7.329,51.867,13.4A196.28,196.28,0,0,0,210.414,209.227Z" fill="#f4754e"/><path d="M199.291,200.678c-11.8-14.951-9.836-40.356-12.2-45.549H131.451c-2.372,5.193-.4,30.6-12.2,45.549,4.721,53.171,40.024,113.312,40.024,113.312S194.48,254.378,199.291,200.678Z" fill="#a57561"/><path d="M179.759,216.995a79.313,79.313,0,0,0,16.2,5.042,177.141,177.141,0,0,0,3.333-21.364c-11.8-14.951-9.836-40.356-12.2-45.549H157.636C157.631,155.135,156.951,206.159,179.759,216.995Z" fill="#a57561"/><path d="M123.969,192.731c9.229,7.959,20.054,15.85,35.241,18.132,15.237-2.288,26.023-10.342,35.269-18.334-7.689-14.973-5.311-32.83-7.391-37.4H131.45C129.365,159.7,131.692,177.752,123.969,192.731Z" fill="#a57561"/><ellipse cx="21.386" cy="11.629" rx="21.386" ry="11.629" transform="translate(239.385 99.139) rotate(100.195)" fill="#a57561"/><ellipse cx="11.629" cy="21.386" rx="11.629" ry="21.386" transform="translate(109.445 137.128) rotate(169.805)" fill="#a57561"/><path d="M219.643,46.938l-59.91,9.218s-21.229.922-38.552,9.729c-15.9,8.088-28,23.91-28.159,28.378-1.551,44.156,7.464,104.645,66.171,113.48C253.524,193.551,219.643,46.938,219.643,46.938Z" fill="#a57561"/><path d="M159.194,207.744c94.331-14.192,60.45-160.806,60.45-160.806H205.5c3.873,61.242,9.229,93.774-13.006,129.24C174.881,204.281,159.194,207.744,159.194,207.744Z" fill="#946c5c"/><path d="M217.4,40.407s-32.7,15.721-81.51,14.883c-43.031-.736-42.464,36.146-42.84,38.636,0,0,10.033-18.593,38.012-23.685,25.422-4.626,45.662,3.114,63.839,4.822,20.223,1.9,26.968-13.445,26.968-13.445Z" fill="#9f7e70"/><path d="M215.664,34.4s-30.975,18.171-79.773,16.733c-52.154-1.54-43.11,41.654-42.84,42.795,0,0,5.379-20.24,33.089-26.76,17.992-4.232,35.286-2.552,53.222,1.006,40.339,8,43.9-15.918,43.9-15.918S225.286,42.941,215.664,34.4Z" fill="#2f3233"/><circle cx="4.367" cy="4.367" r="4.367" transform="translate(223.853 130.55)" fill="#cc7d2e"/><circle cx="4.367" cy="4.367" r="4.367" transform="translate(86.013 130.55)" fill="#cc7d2e"/></g></svg>